<?xml version="1.0" encoding="UTF-8" standalone="no"?>
<!DOCTYPE svg PUBLIC "-//W3C//DTD SVG 20010904//EN"
              "http://www.w3.org/TR/2001/REC-SVG-20010904/DTD/svg10.dtd">

<svg xmlns="http://www.w3.org/2000/svg"
     width="49px" height="46px"
     viewBox="0 0 49 46">
  <path fill="white" stroke="none"
        d="M 44.11,15.81
           C 42.05,12.80 38.94,11.06 34.87,10.66
             22.19,9.39 19.25,20.79 18.79,23.09
             18.72,23.44 18.95,23.79 19.31,23.87
             19.67,23.94 20.02,23.70 20.09,23.35
             20.51,21.24 23.19,10.82 34.74,11.98
             38.40,12.34 41.19,13.89 43.03,16.56
             43.14,16.72 43.24,16.89 43.34,17.05
             41.47,17.66 35.91,19.88 32.43,25.67
             30.59,28.73 29.18,31.40 28.05,33.54
             26.67,36.15 25.67,38.03 24.69,39.17
             24.69,39.17 24.70,39.19 24.70,39.19
             23.55,40.47 19.85,43.85 14.43,41.76
             15.95,40.52 18.77,37.96 18.77,35.97
             18.77,35.82 18.72,35.67 18.63,35.56
             18.47,35.35 18.24,35.09 17.97,34.78
             16.00,32.56 11.92,27.95 13.55,20.57
             13.59,20.38 13.55,20.19 13.44,20.04
             13.33,19.88 13.16,19.78 12.98,19.76
             11.82,19.64 7.88,19.01 5.55,16.00
             4.13,14.17 3.52,11.76 3.75,8.82
             4.96,9.69 7.12,10.97 9.42,10.89
             11.21,10.83 13.14,11.50 14.21,12.59
             14.61,13.00 15.07,13.64 15.03,14.44
             15.02,14.75 15.21,15.02 15.50,15.11
             15.80,15.20 16.11,15.07 16.26,14.81
             16.28,14.77 18.39,11.15 20.54,9.68
             20.74,9.54 20.95,9.40 21.15,9.27
             23.18,7.92 25.71,6.23 23.52,2.48
             23.34,2.17 22.93,2.06 22.62,2.25
             22.30,2.43 22.20,2.84 22.38,3.15
             23.87,5.70 22.73,6.62 20.42,8.17
             20.21,8.30 20.00,8.44 19.80,8.58
             18.28,9.63 16.85,11.51 15.98,12.79
             15.78,12.40 15.50,12.02 15.15,11.66
             13.81,10.30 11.55,9.48 9.37,9.56
             6.54,9.67 3.70,7.09 3.67,7.06
             3.49,6.90 3.24,6.85 3.01,6.93
             2.78,7.01 2.61,7.22 2.57,7.46
             2.02,11.30 2.67,14.45 4.50,16.81
             6.79,19.75 10.35,20.69 12.12,20.98
             10.75,28.62 15.09,33.53 16.98,35.66
             17.15,35.85 17.30,36.03 17.43,36.18
             17.18,37.65 14.49,40.11 12.76,41.38
             12.57,41.52 12.47,41.74 12.49,41.97
             12.51,42.20 12.65,42.41 12.86,42.51
             14.65,43.39 16.30,43.74 17.79,43.74
             22.11,43.74 25.02,40.82 25.88,39.83
             29.91,40.44 33.41,40.25 36.35,39.29
             36.77,39.65 36.87,40.90 36.76,41.77
             36.73,42.00 36.82,42.23 37.01,42.38
             37.13,42.47 37.27,42.52 37.41,42.52
             37.49,42.52 37.58,42.50 37.66,42.47
             41.28,41.01 41.85,36.77 41.93,35.87
             43.89,33.90 45.33,31.28 46.22,28.00
             46.93,25.36 46.95,19.94 44.11,15.81 Z
           M 38.11,40.72
           C 38.09,40.10 37.97,39.37 37.63,38.79
             38.60,38.38 39.50,37.87 40.32,37.27
             40.01,38.39 39.38,39.81 38.11,40.72 Z
           M 44.94,27.66
           C 42.63,36.21 36.50,39.88 26.73,38.60
             27.47,37.45 28.25,35.98 29.21,34.16
             30.34,32.03 31.73,29.38 33.56,26.35
             36.95,20.72 42.60,18.67 43.98,18.24
             45.59,21.69 45.49,25.60 44.94,27.66 Z" />
  <path fill="white" stroke="none"
        d="M 28.30,28.36
           C 28.30,28.86 27.90,29.27 27.40,29.27
             26.90,29.27 26.49,28.86 26.49,28.36
             26.49,27.86 26.90,27.45 27.40,27.45
             27.90,27.45 28.30,27.86 28.30,28.36 Z" />
  <style>
    @media (prefers-color-scheme:light){:root{filter:invert(100%)}}
  </style>
</svg>
